,
.   http://www.scenetime.com/signup.php  ---&gt;  Hottest scene tracker on the net !!!
 
Scenetime lucky draw is started , join now and be the winner . offer is limited 

    Join Now   http://www.scenetime.com/signup.php

    seed back for speed


 



...................................NFO:.................................................Video
ID                               : 0
Format                           : MPEG-4 Visual
Format profile                   : Simple@L1
Format settings, BVOP            : No
Format settings, QPel            : No
Format settings, GMC             : No warppoints
Format settings, Matrix          : Default (H.263)
Codec ID                         : DX50
Codec ID/Hint                    : DivX 5
Duration                         : 1h 46mn
Bit rate                         : 1 796 Kbps
Width                            : 720 pixels
Height                           : 404 pixels
Display aspect ratio             : 16:9
Frame rate                       : 25.000 fps
Color space                      : YUV
Chroma subsampling               : 4:2:0
Bit depth                        : 8 bits
Scan type                        : Progressive
Bits/(Pixel*Frame)               : 0.247
Stream size                      : 1.34 GiB (80%)
Writing library                  : DigiArty AV Encoder Core

Audio
ID                               : 1
Format                           : AC-3
Format/Info                      : Audio Coding 3
Mode extension                   : CM (complete main)
Codec ID                         : 2000
Duration                         : 1h 46mn
Bit rate mode                    : Constant
Bit rate                         : 448 Kbps
Channel(s)                       : 6 channels
Channel positions                : Front: L C R, Side: L R, LFE
Sampling rate                    : 48.0 KHz
Bit depth                        : 16 bits
Stream size                      : 342 MiB (20%)
Alignment                        : Split accross interleaves
Interleave, duration             : 500 ms (12.50 video frames)
Interleave, preload duration     : 500 ms